<svg width="109" height="16" viewBox="0 0 109 16" fill="none" xmlns="http://www.w3.org/2000/svg">
<path fill-rule="evenodd" clip-rule="evenodd" d="M30.6914 0.426025H78.6914V2.42603H89.6914V4.42603H101.691V6.42603H108.691V9.42603H101.691V11.426H89.6914V13.426H78.6914V15.426H30.6914V13.426H19.6914V11.426H7.69141V9.42603H0.691406V6.42603H7.69141V4.42603H19.6914V2.42603H30.6914V0.426025Z" fill="#2B3B43"/>
<rect width="26" height="3" transform="matrix(1 0 0 -1 0.691406 9.42603)" fill="#566268"/>
<rect width="24" height="3" transform="matrix(1 0 0 -1 7.69141 11.426)" fill="#566268"/>
<rect width="24" height="3" transform="matrix(1 0 0 -1 19.6914 13.426)" fill="#566268"/>
<rect width="24" height="3" transform="matrix(1 0 0 -1 30.6914 15.426)" fill="#566268"/>
<rect width="24" height="3" transform="matrix(1 0 0 -1 7.69141 7.42603)" fill="#566268"/>
<rect width="24" height="3" transform="matrix(1 0 0 -1 19.6914 5.42603)" fill="#566268"/>
<rect width="24" height="3" transform="matrix(1 0 0 -1 30.6914 3.42603)" fill="#566268"/>
</svg>
