<svg width="192" height="19" viewBox="0 0 192 19" fill="none" xmlns="http://www.w3.org/2000/svg">
<path fill-rule="evenodd" clip-rule="evenodd" d="M53.6835 0.331787H138.25V2.72058H157.631V5.1095H178.773V7.49843H191.105V11.0818L178.773 11.0817V13.4706H157.631V15.8595H138.25V18.2483H53.6835V15.8595H34.3046V13.4706H13.1635V11.0818H0.830078V11.0817V7.49843V7.49836H13.1635V5.1095H34.3046V2.72058H53.6835V0.331787Z" fill="#2B3B43"/>
<rect width="45.8069" height="3.58333" transform="matrix(1 0 0 -1 0.830078 11.0815)" fill="#566268"/>
<rect width="42.2833" height="3.58333" transform="matrix(1 0 0 -1 13.1631 13.4705)" fill="#566268"/>
<rect width="42.2833" height="3.58333" transform="matrix(1 0 0 -1 34.3047 15.8594)" fill="#566268"/>
<rect width="42.2833" height="3.58333" transform="matrix(1 0 0 -1 53.6836 18.2483)" fill="#566268"/>
<rect width="42.2833" height="3.58333" transform="matrix(1 0 0 -1 13.1631 8.69263)" fill="#566268"/>
<rect width="42.2833" height="3.58333" transform="matrix(1 0 0 -1 34.3047 6.30371)" fill="#566268"/>
<rect width="42.2833" height="3.58333" transform="matrix(1 0 0 -1 53.6836 3.91504)" fill="#566268"/>
</svg>
