<svg width="129" height="19" viewBox="0 0 129 19" fill="none" xmlns="http://www.w3.org/2000/svg">
<path fill-rule="evenodd" clip-rule="evenodd" d="M35.8332 0.967773H93.1665V3.35667H106.306V5.74557H120.639V8.13429H129V8.13447V11.7176V11.7178H120.639V14.1065H106.306V16.4954H93.1665V18.8843H35.8332V16.4954H22.6944V14.1065H8.36156V11.7178H0V11.7176V8.13447V8.13429H8.36156V5.74557H22.6944V3.35667H35.8332V0.967773Z" fill="#2B3B43"/>
<rect width="31.0556" height="3.58333" transform="matrix(1 0 0 -1 0 11.7175)" fill="#566268"/>
<rect width="28.6667" height="3.58333" transform="matrix(1 0 0 -1 8.36133 14.1064)" fill="#566268"/>
<rect width="28.6667" height="3.58333" transform="matrix(1 0 0 -1 22.6943 16.4954)" fill="#566268"/>
<rect width="28.6667" height="3.58333" transform="matrix(1 0 0 -1 35.833 18.8843)" fill="#566268"/>
<rect width="28.6667" height="3.58333" transform="matrix(1 0 0 -1 8.36133 9.32861)" fill="#566268"/>
<rect width="28.6667" height="3.58333" transform="matrix(1 0 0 -1 22.6943 6.9397)" fill="#566268"/>
<rect width="28.6667" height="3.58333" transform="matrix(1 0 0 -1 35.833 4.55078)" fill="#566268"/>
</svg>
