<svg width="130" height="18" viewBox="0 0 130 18" fill="none" xmlns="http://www.w3.org/2000/svg">
<path fill-rule="evenodd" clip-rule="evenodd" d="M35.8557 0.0539551H93.189V2.44285H106.328V4.83175H120.662V7.22048H129.022V7.22065V10.8038V10.804H120.662V13.1927H106.328V15.5816H93.189V17.9705H35.8557V15.5816H22.7169V13.1927H8.38402V10.804H0.0224609V10.8038V7.22065V7.22048H8.38402V4.83175H22.7169V2.44285H35.8557V0.0539551Z" fill="#2B3B43"/>
<rect width="31.0556" height="3.58333" transform="matrix(1 0 0 -1 0.0224609 10.8037)" fill="#566268"/>
<rect width="28.6667" height="3.58333" transform="matrix(1 0 0 -1 8.38379 13.1926)" fill="#566268"/>
<rect width="28.6667" height="3.58333" transform="matrix(1 0 0 -1 22.7168 15.5815)" fill="#566268"/>
<rect width="28.6667" height="3.58333" transform="matrix(1 0 0 -1 35.8555 17.9705)" fill="#566268"/>
<rect width="28.6667" height="3.58333" transform="matrix(1 0 0 -1 8.38379 8.41479)" fill="#566268"/>
<rect width="28.6667" height="3.58333" transform="matrix(1 0 0 -1 22.7168 6.02588)" fill="#566268"/>
<rect width="28.6667" height="3.58333" transform="matrix(1 0 0 -1 35.8555 3.63696)" fill="#566268"/>
</svg>
